<svg xmlns="http://www.w3.org/2000/svg" viewBox="0 0 27.45 35.18"><defs><style>.cls-1{fill:#efcc5a;}.cls-2{fill:#fff;}</style></defs><g id="Layer_2" data-name="Layer 2"><g id="Capa_1" data-name="Capa 1"><path class="cls-1" d="M0,15.51c0,8.64,3.72,13.59,9.64,15h0c1.95.47,3.38,1.78,4.08,4.64h0a5.48,5.48,0,0,1,4.17-4.67h0c6.14-1.46,9.56-6.38,9.56-15C27.45,4.74,22,0,13.56,0,5.42,0,0,5.06,0,15.51Z"/><path class="cls-2" d="M13.72,24.39a1.7,1.7,0,1,0,1.7,1.7A1.7,1.7,0,0,0,13.72,24.39Z"/><path class="cls-2" d="M16.8,11.23a3.08,3.08,0,1,0-3.08,3.07A3.07,3.07,0,0,0,16.8,11.23Zm-4.67,0a1.59,1.59,0,1,1,1.59,1.59A1.59,1.59,0,0,1,12.13,11.23Z"/><path class="cls-2" d="M15,11.23a1.31,1.31,0,1,0-1.31,1.31A1.31,1.31,0,0,0,15,11.23Zm-2.3,0a1,1,0,1,1,1,1A1,1,0,0,1,12.73,11.23Z"/><path class="cls-2" d="M19.31,11.11a5.59,5.59,0,0,0-11.18,0c0,3.09,5.59,11.13,5.59,11.13S19.31,14.2,19.31,11.11Zm-9.78.12a4.19,4.19,0,1,1,4.19,4.19A4.2,4.2,0,0,1,9.53,11.23Z"/></g></g></svg>