<svg xmlns="http://www.w3.org/2000/svg" viewBox="0 0 27.45 35.18"><defs><style>.cls-1{fill:#a1cde7;}.cls-2{fill:#fff;}</style></defs><g id="Layer_2" data-name="Layer 2"><g id="Capa_1" data-name="Capa 1"><path class="cls-1" d="M0,15.51c0,8.64,3.72,13.59,9.64,15h0c1.95.47,3.38,1.78,4.08,4.64h0a5.48,5.48,0,0,1,4.17-4.67h0c6.14-1.46,9.56-6.38,9.56-15C27.45,4.74,22,0,13.56,0,5.42,0,0,5.06,0,15.51Z"/><path class="cls-2" d="M13.72,6.94S8.13,15,8.13,18.07a5.59,5.59,0,1,0,11.18,0C19.31,15,13.72,6.94,13.72,6.94ZM10.89,21.8c-4.41-2.85.48-9.67.48-9.67Z"/></g></g></svg>