<svg xmlns="http://www.w3.org/2000/svg" viewBox="0 0 27.45 35.18"><defs><style>.cls-1{fill:#fff;}.cls-2{fill:#a2ba91;}</style></defs><g id="Layer_2" data-name="Layer 2"><g id="Capa_1" data-name="Capa 1"><path class="cls-1" d="M0,15.51c0,8.64,3.72,13.59,9.64,15h0c1.95.47,3.38,1.78,4.08,4.64h0a5.48,5.48,0,0,1,4.17-4.67h0c6.14-1.46,9.56-6.38,9.56-15C27.45,4.74,22,0,13.56,0,5.42,0,0,5.06,0,15.51Z"/><path class="cls-2" d="M17.23,20.27l7.51-2.84C21.28,16.43,17.23,20.27,17.23,20.27Z"/><path class="cls-2" d="M13.35,18.19l-.1-11.87C10.09,10.61,13.35,18.19,13.35,18.19Z"/><path class="cls-2" d="M2.71,17.43l7.51,2.84S6.17,16.43,2.71,17.43Z"/><path class="cls-2" d="M14.07,18.19s3.26-7.58.1-11.87Z"/><path class="cls-2" d="M17.4,20.73S23,21,25,18Z"/><path class="cls-2" d="M27.45,15.51C27.45,4.74,22,0,13.56,0,5.42,0,0,5.06,0,15.51c0,8.64,3.72,13.59,9.64,15h0c1.95.47,3.37,1.78,4.07,4.64h0a5.48,5.48,0,0,1,4.18-4.67h0C24,29.05,27.45,24.13,27.45,15.51ZM4.05,22a3.52,3.52,0,1,1,2.43-6.6c1.83.67,5.36,5.73,5.36,5.73S5.87,22.68,4.05,22Zm9.66-1.12s-5.2-7.49-5.2-10.36a5.2,5.2,0,1,1,10.4,0C18.91,13.39,13.71,20.88,13.71,20.88Zm1.89.25S19.14,16.07,21,15.4A3.52,3.52,0,1,1,23.4,22C21.57,22.68,15.6,21.13,15.6,21.13Z"/><path class="cls-2" d="M10.05,20.73,2.49,18C4.48,21,10.05,20.73,10.05,20.73Z"/></g></g></svg>